Coordinates
version=1
nRows=28
nColumns=33
inDegrees=yes

Units are S.I. units (second, meters, Newtons, ...)
Angles are in degrees.

endheader
time	ground_thorax_rot_x	ground_thorax_rot_y	ground_thorax_rot_z	ground_thorax_tx	ground_thorax_ty	ground_thorax_tz	clav_prot_r	clav_elev_r	scapula_abduction_r	scapula_elevation_r	scapula_upward_rot_r	scapula_winging_r	shoulder_elv_r	plane_of_elev_r	axial_rot_r	elbow_flexion_r	pro_sup_r	wrist_flex_r	wrist_dev_r	clav_prot_l	clav_elev_l	scapula_abduction_l	scapula_elevation_l	scapula_upward_rot_l	scapula_winging_l	shoulder_elv_l	plane_of_elev_l	axial_rot_l	elbow_flexion_l	pro_sup_l	wrist_flex_l	wrist_dev_l	
3.7300	39.930255	-0.141351	3.118757	-156.081160	895.592413	-8.272228	-1.561517	41.418898	45.000000	45.000000	29.973182	1324.768529	-652.231052	18.616690	-180.000000	1806.825421	-53.092537	22.615732	7.318640	13.081030	-45.000000	-43.240064	45.000000	-33.858529	97.595509	-2612.110557	141.838614	146.821393	1093.958068	-306.147017	3.829884	-21.294568	
3.7400	39.870465	-0.337055	2.669975	-153.343833	897.150590	-8.232914	-1.854775	41.205436	45.000000	45.000000	31.510143	1324.670010	-652.010139	18.706668	-180.000000	1806.812582	-53.363546	22.707071	7.324498	13.067876	-45.000000	-43.745099	45.000000	-32.514077	97.670520	-2611.911588	141.764411	147.135682	1093.967341	-306.339309	3.810718	-21.277961	
3.7500	39.815675	-0.496596	2.277528	-150.472107	898.486466	-8.191500	-2.093817	41.017936	45.000000	45.000000	32.923794	1324.582691	-651.841178	18.806318	-180.000000	1806.799522	-53.937142	22.798654	7.350462	13.017094	-45.000000	-44.183379	45.000000	-31.254918	97.707932	-2611.716777	141.680141	147.471985	1093.958228	-306.690369	3.810624	-21.261285	
3.7600	39.765801	-0.657850	1.903343	-147.464927	899.573609	-8.146081	-2.348030	40.823224	45.000000	45.000000	34.353076	1324.491647	-651.691808	18.901385	-180.000000	1806.796392	-54.820328	22.866145	7.423385	12.904138	-45.000000	-44.529221	45.000000	-30.019429	97.675899	-2611.524484	141.606222	147.832756	1093.929306	-307.228927	3.847367	-21.265699	
3.7700	39.720950	-0.837811	1.523588	-144.321179	900.386842	-8.095198	-2.658644	40.612107	45.000000	44.999999	35.869667	1324.387093	-651.545223	18.978763	-180.000000	1806.804557	-55.999797	22.904372	7.547782	12.728124	-45.000000	-44.775089	45.000000	-28.785175	97.553878	-2611.337486	141.549745	148.217790	1093.876685	-307.985531	3.932140	-21.302637	
3.7800	39.683472	-1.047573	1.125920	-141.039710	900.902851	-8.038162	-3.024145	40.371872	45.000000	44.999999	37.506017	1324.273855	-651.390639	19.026636	-180.000000	1806.830788	-57.492091	22.892188	7.743777	12.490242	-45.000000	-44.920710	45.000000	-27.536501	97.334903	-2611.161472	141.513564	148.624630	1093.795408	-309.003652	4.072764	-21.375025	
3.7900	39.653514	-1.260141	0.740188	-137.619660	901.100990	-7.975247	-3.392525	40.132210	45.000000	44.999998	39.163119	1324.163208	-651.253284	19.048527	-180.000000	1806.874566	-59.312153	22.846879	7.995326	12.219650	-45.000000	-44.983352	45.000000	-26.318971	97.044870	-2611.009848	141.480997	149.055311	1093.680574	-310.313307	4.266119	-21.470322	
3.8000	39.631283	-1.492047	0.335575	-134.060793	900.964085	-7.907706	-3.776567	39.880753	45.000000	44.999996	40.925409	1324.049354	-651.106046	19.021695	-180.000000	1806.940446	-61.483206	22.746586	8.323286	11.943984	-45.000000	-45.000000	45.000000	-25.083734	96.695577	-2610.894267	141.451952	149.519440	1093.530016	-311.947854	4.523632	-21.594730	
3.8100	39.621976	-1.668092	-0.002384	-130.363934	900.479427	-7.837568	-4.019384	39.680161	45.000000	44.999993	42.456475	1323.964304	-651.040533	18.980863	-180.000000	1807.006506	-64.011351	22.620603	8.684600	11.702503	-45.000000	-45.000000	45.000000	-23.980422	96.332490	-2610.828558	141.393121	149.992114	1093.343581	-313.912067	4.829421	-21.718048	
3.8200	39.627831	-1.773891	-0.258545	-126.530789	899.639471	-7.767288	-4.230341	39.524203	45.000000	44.999987	43.638039	1323.892077	-651.110672	18.961656	-180.000000	1807.072695	-66.932308	22.468424	9.076559	11.463088	-45.000000	-45.000000	45.000000	-22.990762	95.971344	-2610.830779	141.313227	150.458812	1093.119430	-316.223121	5.205049	-21.840298	
3.8300	39.649678	-1.765054	-0.378188	-122.564108	898.442209	-7.699232	-4.374138	39.439855	45.000000	44.999976	44.314675	1323.842663	-651.356711	18.981179	-180.000000	1807.131507	-70.255709	22.301886	9.476189	11.225763	-45.000000	-45.000000	45.000000	-22.179661	95.615005	-2610.905088	141.227663	150.905162	1092.866096	-318.860212	5.642736	-21.945014	
3.8400	39.685552	-1.708212	-0.445586	-118.467479	896.891022	-7.635188	-4.634079	39.370407	45.000000	44.999957	44.737910	1323.781789	-651.718792	19.022356	-180.000000	1807.206632	-73.999293	22.087740	9.919936	10.959996	-45.000000	-45.000000	45.000000	-21.403885	95.239481	-2611.053350	141.161886	151.333914	1092.584973	-321.817612	6.171424	-22.051004	
3.8500	39.734668	-1.587993	-0.444641	-114.245581	894.994150	-7.575870	-4.875953	39.334664	45.000000	44.999923	44.940746	1323.737250	-652.159049	19.047892	-180.000000	1807.297480	-78.102739	21.817487	10.394865	10.710493	-45.000000	-45.000000	45.000000	-20.722614	94.830913	-2611.261104	141.124080	151.746303	1092.290898	-325.015431	6.755907	-22.134228	
3.8600	39.795374	-1.440293	-0.417832	-109.903626	892.763942	-7.520645	-5.194713	39.303131	45.000000	44.999862	45.000000	1323.679388	-652.675925	19.081090	-180.000000	1807.418246	-82.522503	21.484972	10.899767	10.448547	-45.000000	-45.000000	45.000000	-20.079681	94.392771	-2611.528109	141.103667	152.135051	1091.984998	-328.387102	7.400571	-22.189052	
3.8700	39.864854	-1.266282	-0.368266	-105.447618	890.215987	-7.467372	-5.455883	39.293950	45.000000	44.999753	44.999999	1323.621170	-653.222172	19.089258	-180.000000	1807.568557	-87.179017	21.092152	11.415553	10.214119	-45.000000	-45.000000	45.000000	-19.519249	93.918750	-2611.831826	141.092599	152.502907	1091.684894	-331.810308	8.062100	-22.195249	
3.8800	39.941185	-1.089822	-0.323544	-100.884696	887.368665	-7.412513	-5.678640	39.296293	45.000000	44.999558	44.999999	1323.546903	-653.789197	19.081722	-180.000000	1807.750014	-91.985002	20.644857	11.926652	10.000153	-45.000000	-45.000000	45.000000	-19.030791	93.415244	-2612.164012	141.069350	152.851747	1091.395471	-335.176850	8.726446	-22.151935	
3.8900	40.022414	-0.897461	-0.267574	-96.223662	884.242846	-7.351279	-5.793797	39.327444	45.000000	44.999208	44.999998	1323.472186	-654.360943	19.040708	-180.000000	1807.954181	-96.823910	20.156048	12.407262	9.825153	-45.000000	-45.000000	45.000000	-18.648438	92.882832	-2612.514227	141.031645	153.193715	1091.127762	-338.348692	9.355684	-22.053328	
3.9000	40.106423	-0.697186	-0.207307	-91.475779	880.862238	-7.277917	-5.885848	39.368185	45.000000	44.998582	44.999997	1323.382828	-654.949441	18.981914	-180.000000	1808.169793	-101.572173	19.632983	12.843551	9.664977	-45.000000	-45.000000	45.000000	-18.348127	92.317049	-2612.881372	140.986244	153.553030	1090.885187	-341.228602	9.946591	-21.918288	
3.9100	40.190262	-0.487541	-0.134771	-86.655180	877.253581	-7.185971	-5.960025	39.411606	45.000000	44.997459	44.999994	1323.275860	-655.553640	18.907876	-180.000000	1808.389249	-106.121330	19.087223	13.222611	9.518222	-45.000000	-45.000000	45.000000	-18.112562	91.728221	-2613.269023	140.937650	153.950060	1090.668741	-343.732638	10.476848	-21.751636	
3.9200	40.272617	-0.267668	-0.047044	-81.779309	873.446939	-7.068668	-6.001798	39.462485	45.000000	44.995451	44.999989	1323.160075	-656.164813	18.812526	-180.000000	1808.597207	-110.362412	18.532958	13.531608	9.389628	-45.000000	-45.000000	45.000000	-17.964778	91.110026	-2613.666489	140.884031	154.403310	1090.474853	-345.805631	10.940228	-21.567985	
3.9300	40.350491	-0.050484	0.044461	-76.868305	869.475221	-6.919334	-6.068230	39.504181	45.000000	44.991844	44.999981	1323.021886	-656.790987	18.714495	-180.000000	1808.792601	-114.246006	17.981224	13.769719	9.264143	-45.000000	-45.000000	45.000000	-17.851513	90.487426	-2614.085299	140.812311	154.921768	1090.290401	-347.427257	11.334977	-21.371342	
3.9400	40.425033	0.163783	0.140053	-71.944506	865.373497	-6.731950	-6.138691	39.544699	45.000000	44.985409	44.999965	1322.875248	-657.419484	18.605478	-180.000000	1808.965586	-117.728311	17.439431	13.935007	9.147259	-45.000000	-45.000000	45.000000	-17.799693	89.847978	-2614.512139	140.727556	155.506329	1090.114818	-348.598444	11.664188	-21.174426	
3.9500	40.494609	0.352480	0.217048	-67.030927	861.177525	-6.501749	-6.288280	39.565455	45.000000	44.973811	44.999937	1322.703726	-658.063244	18.512754	-180.000000	1809.125979	-120.838175	16.914187	14.037395	9.014737	-45.000000	-45.000000	45.000000	-17.733145	89.223502	-2614.963188	140.613439	156.135831	1089.933199	-349.361223	11.936650	-20.978185	
3.9600	40.558693	0.535635	0.294711	-62.150467	856.922518	-6.225724	-6.423722	39.593187	45.000000	44.953232	44.999888	1322.545542	-658.684390	18.400861	-180.000000	1809.267960	-123.582255	16.403984	14.076866	8.887514	-45.000000	-45.000000	45.000000	-17.728769	88.582471	-2615.406898	140.492717	156.799403	1089.757796	-349.751583	12.151043	-20.790874	
3.9700	40.612514	0.693866	0.352304	-57.324439	852.641761	-5.902872	-6.594437	39.612105	45.000000	44.915824	44.999799	1322.394506	-659.291789	18.289526	-180.000000	1809.403578	-126.015801	15.914117	14.065272	8.746790	-45.000000	-45.000000	45.000000	-17.715105	87.952260	-2615.857460	140.353852	157.477895	1089.573540	-349.822084	12.316011	-20.609836	
3.9800	40.652056	0.844733	0.409389	-52.572278	848.366231	-5.534024	-6.714406	39.636356	45.000000	44.850338	44.999640	1322.289939	-659.850340	18.148330	-180.000000	1809.530910	-128.153741	15.443428	14.003303	8.611549	-45.000000	-45.000000	45.000000	-17.754761	87.309541	-2616.285828	140.220829	158.149501	1089.392392	-349.617584	12.430659	-20.439345	
3.9900	40.663924	0.965045	0.448150	-47.910621	844.124343	-5.121246	-6.843032	39.627415	45.000000	44.728781	44.999356	1322.230318	-660.371692	18.006549	-180.000000	1809.657956	-130.042024	14.998273	13.902602	8.461543	-45.000000	-45.000000	45.000000	-17.762514	86.688150	-2616.707034	140.084351	158.803162	1089.195021	-349.187542	12.504625	-20.271518	
4.0000	40.635123	1.071474	0.488348	-43.353889	839.943331	-4.666993	-6.914633	39.574888	45.000000	44.522908	44.998846	1322.253112	-660.819982	17.841757	-180.000000	1809.779849	-131.699804	14.578536	13.763645	8.312183	-45.000000	-45.000000	45.000000	-17.787343	86.077498	-2617.089129	139.959967	159.413522	1088.990543	-348.591163	12.546184	-20.107595	
